<svg xmlns="http://www.w3.org/2000/svg" xmlns:xlink="http://www.w3.org/1999/xlink" width="242" zoomAndPan="magnify" viewBox="0 0 181.5 46.499999" height="62" preserveAspectRatio="xMidYMid meet" version="1.0"><defs><g/><clipPath id="3594d3702f"><path d="M 1.09375 0.339844 L 50 0.339844 L 50 45.726562 L 1.09375 45.726562 Z M 1.09375 0.339844 " clip-rule="nonzero"/></clipPath><clipPath id="d145ed8eef"><path d="M 170 22 L 180.289062 22 L 180.289062 30 L 170 30 Z M 170 22 " clip-rule="nonzero"/></clipPath></defs><g clip-path="url(#3594d3702f)"><path fill="#a86e56" d="M 21.6875 10.738281 C 22.179688 10.308594 22.6875 9.878906 23.21875 9.453125 C 25.492188 7.078125 25.820312 4.039062 24.210938 0.339844 C 23.90625 1.828125 23.246094 3.21875 22.230469 4.511719 C 21.046875 5.457031 20.652344 6.992188 21.046875 9.101562 C 22.125 8.347656 23.097656 6.855469 23.96875 4.621094 C 22.753906 9.414062 20.679688 9.582031 17.863281 12.738281 C 18.007812 10.535156 16.917969 8.539062 13.800781 7.503906 C 14.59375 8.308594 14.984375 9.121094 14.972656 9.941406 C 14.859375 11.480469 15.578125 12.484375 16.613281 12.816406 C 16.714844 12.160156 16.675781 11.234375 16.445312 10.3125 C 17.082031 11.890625 17.210938 12.753906 17.152344 13.574219 C 17.09375 13.71875 14.234375 16.75 12.839844 22.597656 C 10.894531 18.132812 7.007812 15.4375 1.09375 18.425781 C 2.796875 18.433594 4.082031 18.882812 4.949219 19.773438 C 6.46875 21.546875 8.3125 21.84375 9.773438 21.089844 C 9.183594 20.269531 8.152344 19.324219 6.921875 18.585938 C 10.792969 20.230469 11.171875 21.300781 12.664062 23.402344 C 11.996094 26.871094 12.308594 30.445312 13.546875 33.699219 C 11.214844 31.351562 8.382812 32.015625 5.320312 35.777344 C 6.746094 35.238281 7.964844 35.207031 8.964844 35.675781 C 10.792969 36.671875 12.199219 36.625 13.179688 35.53125 C 12.429688 35.035156 11.429688 34.671875 10.164062 34.445312 C 11.878906 34.402344 13.382812 34.957031 14.667969 36.113281 C 17.847656 41.84375 23.945312 45.726562 30.945312 45.726562 C 41.230469 45.726562 49.566406 37.351562 49.566406 27.015625 C 49.566406 17.378906 42.316406 9.445312 32.996094 8.417969 C 41.476562 9.714844 47.753906 16.4375 47.753906 25.195312 C 47.753906 34.519531 40.230469 42.085938 30.945312 42.085938 C 23.804688 42.085938 17.707031 37.609375 15.269531 31.300781 C 14.992188 28.4375 16.085938 25.628906 18.671875 22.976562 C 19.558594 22.066406 20.796875 21.574219 22.167969 21.097656 C 21.210938 21.828125 20.136719 22.640625 18.941406 23.535156 C 22.8125 24.699219 22.75 21.382812 26.703125 21.226562 C 22.371094 18.386719 19.421875 18.953125 17.984375 22.289062 C 16.226562 24.054688 15.078125 25.984375 14.453125 28.488281 C 13.039062 21.273438 16.429688 12.378906 24.414062 11.261719 C 23.253906 11.59375 22.210938 12.136719 21.558594 12.671875 C 22.582031 13.601562 24.144531 13.761719 25.757812 12.65625 C 26.652344 12.125 27.792969 12.039062 29.179688 12.40625 C 27.457031 10.851562 23.851562 9.132812 21.6875 10.738281 Z M 21.6875 10.738281 " fill-opacity="1" fill-rule="evenodd"/></g><path fill="#a86e56" d="M 30.535156 19.441406 C 30.539062 18.234375 31.03125 17.144531 31.828125 16.363281 C 32.628906 17.144531 33.125 18.234375 33.125 19.441406 C 33.125 20.390625 32.816406 21.265625 32.296875 21.980469 C 31.871094 21.402344 31.855469 20.230469 31.828125 19.441406 C 31.632812 20.292969 31.585938 21.066406 31.660156 21.726562 C 31.425781 20.925781 30.992188 20.160156 30.539062 19.664062 C 30.535156 19.589844 30.53125 19.515625 30.535156 19.441406 Z M 30.117188 19.707031 C 29.265625 18.859375 28.148438 18.4375 27.035156 18.453125 C 27.007812 20.59375 28.550781 22.429688 30.65625 22.757812 C 30.550781 22.046875 29.738281 21.207031 29.199219 20.628906 C 29.75 20.972656 30.210938 21.347656 30.578125 21.726562 C 31.214844 22.421875 31.527344 23.160156 31.265625 23.804688 C 31.109375 24.191406 30.328125 24.105469 29.835938 24.585938 C 29.34375 25.070312 28.992188 25.90625 29 26.65625 C 30.269531 26.675781 31.410156 25.847656 31.777344 24.617188 L 31.769531 24.644531 C 31.996094 24.070312 31.78125 23.792969 32.449219 23.003906 C 32.667969 22.800781 32.925781 22.597656 33.226562 22.414062 C 32.863281 22.800781 32.320312 23.359375 32.25 23.835938 C 33.660156 23.621094 34.695312 22.386719 34.675781 20.957031 C 33.929688 20.945312 33.160156 21.246094 32.613281 21.796875 C 31.617188 22.800781 32.046875 23.785156 31.410156 24.425781 C 31.160156 24.695312 30.835938 24.957031 30.453125 25.199219 C 30.695312 24.9375 31.019531 24.601562 31.226562 24.261719 C 32.039062 22.945312 31.085938 20.675781 30.117188 19.707031 Z M 28.160156 21.824219 C 26.957031 21.828125 25.871094 22.320312 25.097656 23.125 C 25.871094 23.925781 26.957031 24.425781 28.160156 24.425781 C 29.105469 24.425781 29.976562 24.113281 30.683594 23.59375 C 30.109375 23.167969 28.945312 23.148438 28.160156 23.125 C 29.023438 22.921875 29.808594 22.878906 30.46875 22.960938 C 29.609375 22.808594 28.855469 22.398438 28.261719 21.828125 C 28.226562 21.828125 28.195312 21.824219 28.160156 21.824219 Z M 40.871094 23.480469 C 43.597656 25.164062 44.324219 26.308594 43.054688 26.90625 C 41.5 27.886719 41.265625 28.882812 42.359375 29.886719 C 42.699219 30.289062 42.675781 30.699219 42.285156 31.109375 C 42.042969 31.386719 42.0625 31.625 42.347656 31.820312 C 42.699219 32.34375 42.589844 32.792969 42.015625 33.179688 C 41.730469 33.539062 41.664062 34.15625 41.816406 35.027344 C 41.964844 37.140625 40.976562 38.070312 38.863281 37.804688 C 32.285156 36.921875 29.023438 36.890625 29.003906 42.09375 C 23.261719 36.847656 26.367188 32.070312 29.539062 27.519531 C 31.277344 27.140625 32.523438 26.152344 33.335938 24.785156 C 28.617188 32.9375 26.339844 34.5625 28.246094 40.144531 C 26.894531 32.929688 40.898438 25.671875 31.640625 10.117188 C 40.554688 14.613281 38.28125 21.351562 40.871094 23.480469 Z M 40.871094 23.480469 " fill-opacity="1" fill-rule="evenodd"/><g fill="#333f48" fill-opacity="1"><g transform="translate(56.676172, 29.018549)"><g><path d="M 10.375 0.609375 C 9.882812 0.609375 9.503906 0.460938 9.234375 0.171875 C 8.972656 -0.117188 8.84375 -0.488281 8.84375 -0.9375 C 8.84375 -1.144531 8.875 -1.378906 8.9375 -1.640625 C 9 -1.898438 9.066406 -2.140625 9.140625 -2.359375 C 9.316406 -2.898438 9.40625 -3.296875 9.40625 -3.546875 C 9.40625 -3.941406 9.253906 -4.140625 8.953125 -4.140625 C 8.660156 -4.140625 8.320312 -3.925781 7.9375 -3.5 C 7.550781 -3.082031 7.035156 -2.390625 6.390625 -1.421875 C 6.234375 -1.191406 5.992188 -0.789062 5.671875 -0.21875 L 5.296875 0.453125 C 5.054688 0.453125 4.796875 0.40625 4.515625 0.3125 C 4.242188 0.21875 4.109375 0.09375 4.109375 -0.0625 C 4.109375 -0.195312 4.25 -0.617188 4.53125 -1.328125 C 4.789062 -2.015625 5.003906 -2.613281 5.171875 -3.125 C 5.335938 -3.644531 5.421875 -4.078125 5.421875 -4.421875 C 5.421875 -4.816406 5.28125 -5.015625 5 -5.015625 C 4.644531 -5.015625 4.179688 -4.734375 3.609375 -4.171875 C 3.046875 -3.609375 2.484375 -2.894531 1.921875 -2.03125 C 1.367188 -1.164062 0.941406 -0.3125 0.640625 0.53125 C 0.398438 0.53125 0.117188 0.460938 -0.203125 0.328125 C -0.523438 0.203125 -0.6875 0.09375 -0.6875 0 L 0.578125 -5.078125 C 0.617188 -5.222656 0.757812 -5.351562 1 -5.46875 C 1.25 -5.582031 1.472656 -5.640625 1.671875 -5.640625 C 1.867188 -5.640625 2.03125 -5.578125 2.15625 -5.453125 C 2.28125 -5.335938 2.34375 -5.179688 2.34375 -4.984375 C 2.34375 -4.765625 2.25 -4.285156 2.0625 -3.546875 C 2.695312 -4.421875 3.351562 -5.144531 4.03125 -5.71875 C 4.707031 -6.300781 5.34375 -6.59375 5.9375 -6.59375 C 6.382812 -6.59375 6.703125 -6.429688 6.890625 -6.109375 C 7.085938 -5.796875 7.1875 -5.398438 7.1875 -4.921875 C 7.1875 -4.671875 7.160156 -4.4375 7.109375 -4.21875 C 7.054688 -4 6.96875 -3.703125 6.84375 -3.328125 C 7.769531 -4.691406 8.726562 -5.375 9.71875 -5.375 C 10.195312 -5.375 10.546875 -5.234375 10.765625 -4.953125 C 10.984375 -4.671875 11.09375 -4.316406 11.09375 -3.890625 C 11.09375 -3.460938 10.960938 -2.867188 10.703125 -2.109375 C 10.679688 -2.054688 10.628906 -1.882812 10.546875 -1.59375 C 10.460938 -1.300781 10.421875 -1.0625 10.421875 -0.875 C 10.421875 -0.519531 10.585938 -0.34375 10.921875 -0.34375 C 11.390625 -0.34375 11.851562 -0.644531 12.3125 -1.25 C 12.769531 -1.851562 13.195312 -2.582031 13.59375 -3.4375 L 13.9375 -3.015625 C 13.550781 -2.023438 13.054688 -1.171875 12.453125 -0.453125 C 11.847656 0.253906 11.15625 0.609375 10.375 0.609375 Z M 10.375 0.609375 "/></g></g></g><g fill="#333f48" fill-opacity="1"><g transform="translate(69.766561, 29.018549)"><g><path d="M 1.109375 0.9375 C 0.648438 0.9375 0.265625 0.78125 -0.046875 0.46875 C -0.359375 0.164062 -0.515625 -0.257812 -0.515625 -0.8125 C -0.515625 -1.582031 -0.234375 -2.441406 0.328125 -3.390625 C 0.890625 -4.347656 1.609375 -5.15625 2.484375 -5.8125 C 3.359375 -6.476562 4.226562 -6.8125 5.09375 -6.8125 C 5.675781 -6.8125 6.160156 -6.660156 6.546875 -6.359375 C 6.941406 -6.054688 7.140625 -5.675781 7.140625 -5.21875 C 7.140625 -4.613281 6.765625 -4.296875 6.015625 -4.265625 C 6.492188 -4.117188 6.734375 -3.921875 6.734375 -3.671875 C 6.734375 -3.578125 6.6875 -3.4375 6.59375 -3.25 C 6.5 -3.070312 6.390625 -2.878906 6.265625 -2.671875 C 6.054688 -2.328125 5.890625 -2.023438 5.765625 -1.765625 C 5.648438 -1.515625 5.59375 -1.273438 5.59375 -1.046875 C 5.59375 -0.847656 5.640625 -0.679688 5.734375 -0.546875 C 5.835938 -0.410156 5.988281 -0.34375 6.1875 -0.34375 C 6.5625 -0.34375 7.035156 -0.597656 7.609375 -1.109375 C 8.179688 -1.628906 8.738281 -2.40625 9.28125 -3.4375 L 9.65625 -3.0625 C 9.175781 -1.957031 8.570312 -1.070312 7.84375 -0.40625 C 7.113281 0.257812 6.378906 0.59375 5.640625 0.59375 C 5.109375 0.59375 4.695312 0.414062 4.40625 0.0625 C 4.125 -0.28125 3.984375 -0.675781 3.984375 -1.125 C 3.390625 -0.414062 2.878906 0.101562 2.453125 0.4375 C 2.035156 0.769531 1.585938 0.9375 1.109375 0.9375 Z M 1.53125 -0.078125 C 1.988281 -0.078125 2.523438 -0.410156 3.140625 -1.078125 C 3.753906 -1.742188 4.453125 -2.613281 5.234375 -3.6875 L 5.640625 -4.234375 C 5.671875 -4.296875 5.722656 -4.328125 5.796875 -4.328125 L 5.875 -4.3125 C 5.9375 -4.519531 5.96875 -4.765625 5.96875 -5.046875 C 5.96875 -5.734375 5.691406 -6.078125 5.140625 -6.078125 C 4.554688 -6.078125 3.945312 -5.765625 3.3125 -5.140625 C 2.675781 -4.515625 2.144531 -3.769531 1.71875 -2.90625 C 1.289062 -2.050781 1.078125 -1.320312 1.078125 -0.71875 C 1.078125 -0.488281 1.113281 -0.320312 1.1875 -0.21875 C 1.257812 -0.125 1.375 -0.078125 1.53125 -0.078125 Z M 1.53125 -0.078125 "/></g></g></g><g fill="#333f48" fill-opacity="1"><g transform="translate(78.572818, 29.018549)"><g><path d="M 6.296875 0.75 C 5.773438 0.75 5.332031 0.539062 4.96875 0.125 C 4.613281 -0.289062 4.347656 -0.789062 4.171875 -1.375 C 4.003906 -1.957031 3.921875 -2.476562 3.921875 -2.9375 C 5.628906 -3.320312 6.484375 -3.910156 6.484375 -4.703125 C 6.484375 -4.941406 6.40625 -5.132812 6.25 -5.28125 C 6.101562 -5.425781 5.890625 -5.5 5.609375 -5.5 C 4.804688 -5.5 4.097656 -4.984375 3.484375 -3.953125 C 2.867188 -2.929688 2.3125 -1.742188 1.8125 -0.390625 C 1.664062 0.00390625 1.523438 0.269531 1.390625 0.40625 C 1.253906 0.539062 1.0625 0.609375 0.8125 0.609375 C 0.601562 0.609375 0.421875 0.515625 0.265625 0.328125 C 0.117188 0.148438 0.046875 -0.25 0.046875 -0.875 C 0.046875 -2.394531 0.429688 -4.203125 1.203125 -6.296875 C 1.984375 -8.398438 2.875 -10.238281 3.875 -11.8125 C 4.882812 -13.382812 5.65625 -14.171875 6.1875 -14.171875 C 6.414062 -14.171875 6.601562 -14.03125 6.75 -13.75 C 6.90625 -13.46875 6.984375 -13.125 6.984375 -12.71875 C 6.984375 -12.125 6.804688 -11.4375 6.453125 -10.65625 C 6.109375 -9.882812 5.617188 -9.140625 4.984375 -8.421875 C 4.359375 -7.710938 3.65625 -7.128906 2.875 -6.671875 C 2.53125 -5.847656 2.25 -5.015625 2.03125 -4.171875 C 1.820312 -3.335938 1.691406 -2.578125 1.640625 -1.890625 C 3.078125 -5.171875 4.546875 -6.8125 6.046875 -6.8125 C 6.578125 -6.8125 7.039062 -6.617188 7.4375 -6.234375 C 7.832031 -5.859375 8.03125 -5.398438 8.03125 -4.859375 C 8.03125 -4.367188 7.863281 -3.945312 7.53125 -3.59375 C 7.207031 -3.25 6.816406 -2.988281 6.359375 -2.8125 C 5.910156 -2.632812 5.515625 -2.535156 5.171875 -2.515625 C 5.304688 -1.910156 5.488281 -1.375 5.71875 -0.90625 C 5.957031 -0.4375 6.300781 -0.203125 6.75 -0.203125 C 7.226562 -0.203125 7.726562 -0.515625 8.25 -1.140625 C 8.78125 -1.765625 9.265625 -2.5625 9.703125 -3.53125 L 9.984375 -3.1875 C 9.609375 -2.125 9.078125 -1.203125 8.390625 -0.421875 C 7.703125 0.359375 7.003906 0.75 6.296875 0.75 Z M 3.453125 -8.015625 C 4.097656 -8.585938 4.6875 -9.269531 5.21875 -10.0625 C 5.757812 -10.863281 6.035156 -11.609375 6.046875 -12.296875 C 5.835938 -12.210938 5.472656 -11.75 4.953125 -10.90625 C 4.441406 -10.070312 3.941406 -9.109375 3.453125 -8.015625 Z M 3.453125 -8.015625 "/></g></g></g><g fill="#333f48" fill-opacity="1"><g transform="translate(87.736087, 29.018549)"><g><path d="M 2.296875 0.875 C 1.460938 0.875 0.8125 0.648438 0.34375 0.203125 C -0.113281 -0.242188 -0.34375 -0.820312 -0.34375 -1.53125 C -0.34375 -2.289062 -0.0859375 -3.117188 0.421875 -4.015625 C 0.941406 -4.910156 1.601562 -5.65625 2.40625 -6.25 C 3.21875 -6.851562 4.015625 -7.15625 4.796875 -7.15625 C 5.210938 -7.15625 5.554688 -7.050781 5.828125 -6.84375 C 6.109375 -6.644531 6.25 -6.304688 6.25 -5.828125 C 6.25 -5.191406 6.003906 -4.59375 5.515625 -4.03125 C 5.023438 -3.46875 4.390625 -3.007812 3.609375 -2.65625 C 2.835938 -2.300781 2.050781 -2.078125 1.25 -1.984375 C 1.21875 -1.847656 1.203125 -1.695312 1.203125 -1.53125 C 1.203125 -1.1875 1.296875 -0.84375 1.484375 -0.5 C 1.679688 -0.15625 2.097656 0.015625 2.734375 0.015625 C 3.546875 0.015625 4.367188 -0.304688 5.203125 -0.953125 C 6.046875 -1.609375 6.726562 -2.425781 7.25 -3.40625 L 7.640625 -3.09375 C 7.109375 -1.90625 6.347656 -0.945312 5.359375 -0.21875 C 4.378906 0.507812 3.359375 0.875 2.296875 0.875 Z M 1.46875 -2.71875 C 1.945312 -2.769531 2.476562 -2.960938 3.0625 -3.296875 C 3.65625 -3.628906 4.15625 -4.035156 4.5625 -4.515625 C 4.96875 -4.992188 5.171875 -5.46875 5.171875 -5.9375 C 5.171875 -6.082031 5.144531 -6.179688 5.09375 -6.234375 C 5.039062 -6.285156 4.957031 -6.3125 4.84375 -6.3125 C 4.457031 -6.3125 4.035156 -6.128906 3.578125 -5.765625 C 3.117188 -5.398438 2.695312 -4.9375 2.3125 -4.375 C 1.9375 -3.820312 1.65625 -3.269531 1.46875 -2.71875 Z M 1.46875 -2.71875 "/></g></g></g><g fill="#333f48" fill-opacity="1"><g transform="translate(94.499456, 29.018549)"><g><path d="M 1.515625 0.59375 C 1.078125 0.59375 0.710938 0.390625 0.421875 -0.015625 C 0.128906 -0.429688 -0.015625 -0.914062 -0.015625 -1.46875 C -0.015625 -1.945312 0.0859375 -2.539062 0.296875 -3.25 C 0.503906 -3.96875 0.75 -4.585938 1.03125 -5.109375 C 1.320312 -5.640625 1.570312 -5.90625 1.78125 -5.90625 C 1.875 -5.90625 2.015625 -5.851562 2.203125 -5.75 C 2.398438 -5.65625 2.570312 -5.535156 2.71875 -5.390625 C 2.4375 -4.984375 2.144531 -4.394531 1.84375 -3.625 C 1.550781 -2.863281 1.40625 -2.203125 1.40625 -1.640625 C 1.40625 -1.390625 1.441406 -1.128906 1.515625 -0.859375 C 1.585938 -0.585938 1.75 -0.453125 2 -0.453125 C 2.488281 -0.453125 3.070312 -1 3.75 -2.09375 C 4.4375 -3.1875 5.023438 -4.296875 5.515625 -5.421875 C 6.304688 -5.285156 6.703125 -5.0625 6.703125 -4.75 C 6.703125 -4.71875 6.625 -4.523438 6.46875 -4.171875 C 6.1875 -3.515625 5.945312 -2.910156 5.75 -2.359375 C 5.550781 -1.804688 5.453125 -1.320312 5.453125 -0.90625 C 5.453125 -0.445312 5.632812 -0.21875 6 -0.21875 C 6.269531 -0.21875 6.597656 -0.347656 6.984375 -0.609375 C 7.378906 -0.867188 7.78125 -1.238281 8.1875 -1.71875 C 8.601562 -2.195312 8.960938 -2.753906 9.265625 -3.390625 L 9.5625 -3.15625 C 9.269531 -2.4375 8.890625 -1.789062 8.421875 -1.21875 C 7.960938 -0.65625 7.460938 -0.210938 6.921875 0.109375 C 6.390625 0.429688 5.878906 0.59375 5.390625 0.59375 C 4.816406 0.59375 4.445312 0.394531 4.28125 0 C 4.113281 -0.40625 4.03125 -0.945312 4.03125 -1.625 C 3.582031 -0.9375 3.15625 -0.394531 2.75 0 C 2.351562 0.394531 1.941406 0.59375 1.515625 0.59375 Z M 1.515625 0.59375 "/></g></g></g><g fill="#333f48" fill-opacity="1"><g transform="translate(103.246209, 29.018549)"><g><path d="M -1.109375 5.5625 C -1.265625 5.5625 -1.429688 5.5 -1.609375 5.375 C -1.796875 5.257812 -1.894531 5.15625 -1.90625 5.0625 C -1.320312 3.363281 -0.894531 2.035156 -0.625 1.078125 C -0.351562 0.117188 -0.128906 -0.894531 0.046875 -1.96875 C 0.222656 -3.050781 0.457031 -4.710938 0.75 -6.953125 C 0.78125 -7.128906 0.816406 -7.25 0.859375 -7.3125 C 0.910156 -7.375 1.035156 -7.40625 1.234375 -7.40625 C 1.617188 -7.40625 1.910156 -7.300781 2.109375 -7.09375 C 2.304688 -6.882812 2.40625 -6.632812 2.40625 -6.34375 C 2.40625 -6.03125 2.3125 -5.410156 2.125 -4.484375 C 2.550781 -5.128906 3.035156 -5.664062 3.578125 -6.09375 C 4.128906 -6.53125 4.722656 -6.75 5.359375 -6.75 C 6.003906 -6.75 6.535156 -6.523438 6.953125 -6.078125 C 7.378906 -5.640625 7.59375 -5.066406 7.59375 -4.359375 C 7.59375 -3.660156 7.382812 -2.914062 6.96875 -2.125 C 6.550781 -1.34375 5.972656 -0.6875 5.234375 -0.15625 C 4.492188 0.375 3.675781 0.640625 2.78125 0.640625 C 2.363281 0.640625 2.023438 0.582031 1.765625 0.46875 C 1.515625 0.363281 1.390625 0.25 1.390625 0.125 C 1.390625 -0.0078125 1.546875 -0.078125 1.859375 -0.078125 C 2.660156 -0.0859375 3.378906 -0.300781 4.015625 -0.71875 C 4.648438 -1.132812 5.144531 -1.65625 5.5 -2.28125 C 5.851562 -2.90625 6.03125 -3.519531 6.03125 -4.125 C 6.03125 -4.550781 5.9375 -4.898438 5.75 -5.171875 C 5.570312 -5.453125 5.296875 -5.59375 4.921875 -5.59375 C 4.515625 -5.59375 4.09375 -5.421875 3.65625 -5.078125 C 3.21875 -4.742188 2.828125 -4.335938 2.484375 -3.859375 C 2.140625 -3.390625 1.875 -2.953125 1.6875 -2.546875 C 1.457031 -1.765625 1.164062 -0.640625 0.8125 0.828125 C 0.425781 2.460938 0.0976562 3.660156 -0.171875 4.421875 C -0.441406 5.179688 -0.753906 5.5625 -1.109375 5.5625 Z M -1.109375 5.5625 "/></g></g></g><g fill="#333f48" fill-opacity="1"><g transform="translate(111.437615, 29.018549)"><g><path d="M 2.078125 1.453125 C 1.335938 1.453125 0.769531 1.21875 0.375 0.75 C -0.0195312 0.289062 -0.21875 -0.351562 -0.21875 -1.1875 C -0.21875 -2.4375 0.175781 -4.101562 0.96875 -6.1875 C 1.757812 -8.269531 2.664062 -10.117188 3.6875 -11.734375 C 4.707031 -13.359375 5.507812 -14.171875 6.09375 -14.171875 C 6.34375 -14.171875 6.535156 -14.03125 6.671875 -13.75 C 6.816406 -13.46875 6.894531 -13.148438 6.90625 -12.796875 C 6.90625 -12.160156 6.6875 -11.328125 6.25 -10.296875 C 5.8125 -9.273438 5.238281 -8.296875 4.53125 -7.359375 C 3.820312 -6.421875 3.078125 -5.726562 2.296875 -5.28125 C 2.117188 -4.9375 1.925781 -4.367188 1.71875 -3.578125 C 1.507812 -2.796875 1.40625 -2.039062 1.40625 -1.3125 C 1.40625 -0.726562 1.488281 -0.265625 1.65625 0.078125 C 1.820312 0.429688 2.082031 0.609375 2.4375 0.609375 C 2.78125 0.609375 3.148438 0.453125 3.546875 0.140625 C 3.941406 -0.160156 4.269531 -0.546875 4.53125 -1.015625 C 4.050781 -1.273438 3.679688 -1.640625 3.421875 -2.109375 C 3.160156 -2.578125 3.03125 -3.082031 3.03125 -3.625 C 3.03125 -4.257812 3.203125 -4.78125 3.546875 -5.1875 C 3.890625 -5.59375 4.320312 -5.796875 4.84375 -5.796875 C 5.289062 -5.796875 5.644531 -5.625 5.90625 -5.28125 C 6.175781 -4.945312 6.3125 -4.457031 6.3125 -3.8125 C 6.3125 -3 6.113281 -2.164062 5.71875 -1.3125 L 6.078125 -1.296875 C 6.679688 -1.296875 7.179688 -1.503906 7.578125 -1.921875 C 7.972656 -2.347656 8.320312 -2.875 8.625 -3.5 L 8.9375 -3.078125 C 8.570312 -2.253906 8.148438 -1.644531 7.671875 -1.25 C 7.191406 -0.863281 6.570312 -0.671875 5.8125 -0.671875 C 5.625 -0.671875 5.484375 -0.675781 5.390625 -0.6875 C 4.984375 -0.0390625 4.5 0.472656 3.9375 0.859375 C 3.382812 1.253906 2.765625 1.453125 2.078125 1.453125 Z M 2.671875 -6.53125 C 3.222656 -7.019531 3.75 -7.65625 4.25 -8.4375 C 4.75 -9.226562 5.15625 -9.988281 5.46875 -10.71875 C 5.789062 -11.457031 5.957031 -11.984375 5.96875 -12.296875 C 5.800781 -12.234375 5.503906 -11.90625 5.078125 -11.3125 C 4.648438 -10.71875 4.210938 -9.984375 3.765625 -9.109375 C 3.316406 -8.242188 2.953125 -7.382812 2.671875 -6.53125 Z M 4.859375 -1.671875 C 5.097656 -2.210938 5.21875 -2.773438 5.21875 -3.359375 C 5.21875 -3.804688 5.164062 -4.148438 5.0625 -4.390625 C 4.957031 -4.628906 4.816406 -4.75 4.640625 -4.75 C 4.472656 -4.75 4.328125 -4.628906 4.203125 -4.390625 C 4.078125 -4.148438 4.015625 -3.863281 4.015625 -3.53125 C 4.015625 -3.195312 4.082031 -2.851562 4.21875 -2.5 C 4.351562 -2.15625 4.566406 -1.878906 4.859375 -1.671875 Z M 4.859375 -1.671875 "/></g></g></g><g fill="#333f48" fill-opacity="1"><g transform="translate(119.549683, 29.018549)"><g><path d="M 0.953125 5.5625 C 0.578125 5.5625 0.257812 5.453125 0 5.234375 C -0.257812 5.015625 -0.390625 4.691406 -0.390625 4.265625 C -0.390625 3.753906 -0.195312 3.285156 0.1875 2.859375 C 0.582031 2.429688 1.035156 2.070312 1.546875 1.78125 C 2.066406 1.488281 2.734375 1.15625 3.546875 0.78125 C 3.773438 0.207031 4.09375 -0.828125 4.5 -2.328125 C 4.03125 -1.648438 3.566406 -1.117188 3.109375 -0.734375 C 2.648438 -0.347656 2.160156 -0.15625 1.640625 -0.15625 C 1.210938 -0.15625 0.820312 -0.285156 0.46875 -0.546875 C 0.125 -0.816406 -0.046875 -1.238281 -0.046875 -1.8125 C -0.046875 -2.257812 0.0546875 -2.828125 0.265625 -3.515625 C 0.484375 -4.210938 0.738281 -4.820312 1.03125 -5.34375 C 1.320312 -5.863281 1.570312 -6.125 1.78125 -6.125 C 1.914062 -6.125 2.113281 -6.054688 2.375 -5.921875 C 2.644531 -5.785156 2.804688 -5.640625 2.859375 -5.484375 C 2.609375 -5.140625 2.332031 -4.5625 2.03125 -3.75 C 1.738281 -2.945312 1.59375 -2.3125 1.59375 -1.84375 C 1.59375 -1.351562 1.78125 -1.109375 2.15625 -1.109375 C 2.5625 -1.109375 2.992188 -1.335938 3.453125 -1.796875 C 3.910156 -2.265625 4.351562 -2.835938 4.78125 -3.515625 C 4.8125 -3.609375 4.851562 -3.828125 4.90625 -4.171875 C 4.957031 -4.515625 5.070312 -4.8125 5.25 -5.0625 C 5.4375 -5.320312 5.703125 -5.453125 6.046875 -5.453125 C 6.097656 -5.453125 6.3125 -5.425781 6.6875 -5.375 C 6.675781 -5.039062 6.519531 -4.316406 6.21875 -3.203125 C 5.925781 -2.097656 5.578125 -1.015625 5.171875 0.046875 C 5.828125 -0.222656 6.441406 -0.628906 7.015625 -1.171875 C 7.585938 -1.710938 8.039062 -2.425781 8.375 -3.3125 L 8.71875 -3.03125 C 8.4375 -2.125 7.953125 -1.359375 7.265625 -0.734375 C 6.585938 -0.109375 5.804688 0.398438 4.921875 0.796875 C 4.296875 2.265625 3.660156 3.425781 3.015625 4.28125 C 2.378906 5.132812 1.691406 5.5625 0.953125 5.5625 Z M 0.75 4.828125 C 1.03125 4.828125 1.394531 4.546875 1.84375 3.984375 C 2.289062 3.421875 2.734375 2.640625 3.171875 1.640625 C 2.410156 2.023438 1.753906 2.445312 1.203125 2.90625 C 0.648438 3.375 0.375 3.828125 0.375 4.265625 C 0.375 4.410156 0.40625 4.539062 0.46875 4.65625 C 0.53125 4.769531 0.625 4.828125 0.75 4.828125 Z M 0.75 4.828125 "/></g></g></g><g fill="#333f48" fill-opacity="1"><g transform="translate(127.48325, 29.018549)"><g><path d="M 6.296875 0.75 C 5.773438 0.75 5.332031 0.539062 4.96875 0.125 C 4.613281 -0.289062 4.347656 -0.789062 4.171875 -1.375 C 4.003906 -1.957031 3.921875 -2.476562 3.921875 -2.9375 C 5.628906 -3.320312 6.484375 -3.910156 6.484375 -4.703125 C 6.484375 -4.941406 6.40625 -5.132812 6.25 -5.28125 C 6.101562 -5.425781 5.890625 -5.5 5.609375 -5.5 C 4.804688 -5.5 4.097656 -4.984375 3.484375 -3.953125 C 2.867188 -2.929688 2.3125 -1.742188 1.8125 -0.390625 C 1.664062 0.00390625 1.523438 0.269531 1.390625 0.40625 C 1.253906 0.539062 1.0625 0.609375 0.8125 0.609375 C 0.601562 0.609375 0.421875 0.515625 0.265625 0.328125 C 0.117188 0.148438 0.046875 -0.25 0.046875 -0.875 C 0.046875 -2.394531 0.429688 -4.203125 1.203125 -6.296875 C 1.984375 -8.398438 2.875 -10.238281 3.875 -11.8125 C 4.882812 -13.382812 5.65625 -14.171875 6.1875 -14.171875 C 6.414062 -14.171875 6.601562 -14.03125 6.75 -13.75 C 6.90625 -13.46875 6.984375 -13.125 6.984375 -12.71875 C 6.984375 -12.125 6.804688 -11.4375 6.453125 -10.65625 C 6.109375 -9.882812 5.617188 -9.140625 4.984375 -8.421875 C 4.359375 -7.710938 3.65625 -7.128906 2.875 -6.671875 C 2.53125 -5.847656 2.25 -5.015625 2.03125 -4.171875 C 1.820312 -3.335938 1.691406 -2.578125 1.640625 -1.890625 C 3.078125 -5.171875 4.546875 -6.8125 6.046875 -6.8125 C 6.578125 -6.8125 7.039062 -6.617188 7.4375 -6.234375 C 7.832031 -5.859375 8.03125 -5.398438 8.03125 -4.859375 C 8.03125 -4.367188 7.863281 -3.945312 7.53125 -3.59375 C 7.207031 -3.25 6.816406 -2.988281 6.359375 -2.8125 C 5.910156 -2.632812 5.515625 -2.535156 5.171875 -2.515625 C 5.304688 -1.910156 5.488281 -1.375 5.71875 -0.90625 C 5.957031 -0.4375 6.300781 -0.203125 6.75 -0.203125 C 7.226562 -0.203125 7.726562 -0.515625 8.25 -1.140625 C 8.78125 -1.765625 9.265625 -2.5625 9.703125 -3.53125 L 9.984375 -3.1875 C 9.609375 -2.125 9.078125 -1.203125 8.390625 -0.421875 C 7.703125 0.359375 7.003906 0.75 6.296875 0.75 Z M 3.453125 -8.015625 C 4.097656 -8.585938 4.6875 -9.269531 5.21875 -10.0625 C 5.757812 -10.863281 6.035156 -11.609375 6.046875 -12.296875 C 5.835938 -12.210938 5.472656 -11.75 4.953125 -10.90625 C 4.441406 -10.070312 3.941406 -9.109375 3.453125 -8.015625 Z M 3.453125 -8.015625 "/></g></g></g><g fill="#333f48" fill-opacity="1"><g transform="translate(136.646519, 29.018549)"><g><path d="M 3.921875 -8.359375 C 3.648438 -8.359375 3.414062 -8.421875 3.21875 -8.546875 C 3.03125 -8.679688 2.9375 -8.875 2.9375 -9.125 C 2.9375 -9.425781 3.101562 -9.691406 3.4375 -9.921875 C 3.78125 -10.160156 4.144531 -10.28125 4.53125 -10.28125 C 5.09375 -10.28125 5.375 -10.035156 5.375 -9.546875 C 5.375 -9.265625 5.222656 -8.992188 4.921875 -8.734375 C 4.617188 -8.484375 4.285156 -8.359375 3.921875 -8.359375 Z M 1.59375 0.59375 C 1.03125 0.59375 0.597656 0.425781 0.296875 0.09375 C -0.00390625 -0.226562 -0.15625 -0.648438 -0.15625 -1.171875 C -0.15625 -1.703125 -0.0078125 -2.421875 0.28125 -3.328125 C 0.582031 -4.234375 0.960938 -5.03125 1.421875 -5.71875 C 1.878906 -6.40625 2.335938 -6.75 2.796875 -6.75 C 2.972656 -6.75 3.113281 -6.695312 3.21875 -6.59375 C 3.332031 -6.5 3.390625 -6.359375 3.390625 -6.171875 C 3.390625 -6.054688 3.335938 -5.894531 3.234375 -5.6875 C 3.128906 -5.476562 2.957031 -5.179688 2.71875 -4.796875 C 2.289062 -4.097656 1.953125 -3.476562 1.703125 -2.9375 C 1.460938 -2.40625 1.34375 -1.898438 1.34375 -1.421875 C 1.34375 -1.015625 1.414062 -0.738281 1.5625 -0.59375 C 1.707031 -0.445312 1.9375 -0.375 2.25 -0.375 C 3.289062 -0.375 4.328125 -1.382812 5.359375 -3.40625 L 5.65625 -3.09375 C 5.195312 -1.925781 4.609375 -1.019531 3.890625 -0.375 C 3.171875 0.269531 2.40625 0.59375 1.59375 0.59375 Z M 1.59375 0.59375 "/></g></g></g><g fill="#333f48" fill-opacity="1"><g transform="translate(141.485998, 29.018549)"><g><path d="M 6.296875 0.75 C 5.773438 0.75 5.332031 0.539062 4.96875 0.125 C 4.613281 -0.289062 4.347656 -0.789062 4.171875 -1.375 C 4.003906 -1.957031 3.921875 -2.476562 3.921875 -2.9375 C 5.628906 -3.320312 6.484375 -3.910156 6.484375 -4.703125 C 6.484375 -4.941406 6.40625 -5.132812 6.25 -5.28125 C 6.101562 -5.425781 5.890625 -5.5 5.609375 -5.5 C 4.804688 -5.5 4.097656 -4.984375 3.484375 -3.953125 C 2.867188 -2.929688 2.3125 -1.742188 1.8125 -0.390625 C 1.664062 0.00390625 1.523438 0.269531 1.390625 0.40625 C 1.253906 0.539062 1.0625 0.609375 0.8125 0.609375 C 0.601562 0.609375 0.421875 0.515625 0.265625 0.328125 C 0.117188 0.148438 0.046875 -0.25 0.046875 -0.875 C 0.046875 -2.394531 0.429688 -4.203125 1.203125 -6.296875 C 1.984375 -8.398438 2.875 -10.238281 3.875 -11.8125 C 4.882812 -13.382812 5.65625 -14.171875 6.1875 -14.171875 C 6.414062 -14.171875 6.601562 -14.03125 6.75 -13.75 C 6.90625 -13.46875 6.984375 -13.125 6.984375 -12.71875 C 6.984375 -12.125 6.804688 -11.4375 6.453125 -10.65625 C 6.109375 -9.882812 5.617188 -9.140625 4.984375 -8.421875 C 4.359375 -7.710938 3.65625 -7.128906 2.875 -6.671875 C 2.53125 -5.847656 2.25 -5.015625 2.03125 -4.171875 C 1.820312 -3.335938 1.691406 -2.578125 1.640625 -1.890625 C 3.078125 -5.171875 4.546875 -6.8125 6.046875 -6.8125 C 6.578125 -6.8125 7.039062 -6.617188 7.4375 -6.234375 C 7.832031 -5.859375 8.03125 -5.398438 8.03125 -4.859375 C 8.03125 -4.367188 7.863281 -3.945312 7.53125 -3.59375 C 7.207031 -3.25 6.816406 -2.988281 6.359375 -2.8125 C 5.910156 -2.632812 5.515625 -2.535156 5.171875 -2.515625 C 5.304688 -1.910156 5.488281 -1.375 5.71875 -0.90625 C 5.957031 -0.4375 6.300781 -0.203125 6.75 -0.203125 C 7.226562 -0.203125 7.726562 -0.515625 8.25 -1.140625 C 8.78125 -1.765625 9.265625 -2.5625 9.703125 -3.53125 L 9.984375 -3.1875 C 9.609375 -2.125 9.078125 -1.203125 8.390625 -0.421875 C 7.703125 0.359375 7.003906 0.75 6.296875 0.75 Z M 3.453125 -8.015625 C 4.097656 -8.585938 4.6875 -9.269531 5.21875 -10.0625 C 5.757812 -10.863281 6.035156 -11.609375 6.046875 -12.296875 C 5.835938 -12.210938 5.472656 -11.75 4.953125 -10.90625 C 4.441406 -10.070312 3.941406 -9.109375 3.453125 -8.015625 Z M 3.453125 -8.015625 "/></g></g></g><g fill="#333f48" fill-opacity="1"><g transform="translate(150.649267, 29.018549)"><g><path d="M 3.921875 -8.359375 C 3.648438 -8.359375 3.414062 -8.421875 3.21875 -8.546875 C 3.03125 -8.679688 2.9375 -8.875 2.9375 -9.125 C 2.9375 -9.425781 3.101562 -9.691406 3.4375 -9.921875 C 3.78125 -10.160156 4.144531 -10.28125 4.53125 -10.28125 C 5.09375 -10.28125 5.375 -10.035156 5.375 -9.546875 C 5.375 -9.265625 5.222656 -8.992188 4.921875 -8.734375 C 4.617188 -8.484375 4.285156 -8.359375 3.921875 -8.359375 Z M 1.59375 0.59375 C 1.03125 0.59375 0.597656 0.425781 0.296875 0.09375 C -0.00390625 -0.226562 -0.15625 -0.648438 -0.15625 -1.171875 C -0.15625 -1.703125 -0.0078125 -2.421875 0.28125 -3.328125 C 0.582031 -4.234375 0.960938 -5.03125 1.421875 -5.71875 C 1.878906 -6.40625 2.335938 -6.75 2.796875 -6.75 C 2.972656 -6.75 3.113281 -6.695312 3.21875 -6.59375 C 3.332031 -6.5 3.390625 -6.359375 3.390625 -6.171875 C 3.390625 -6.054688 3.335938 -5.894531 3.234375 -5.6875 C 3.128906 -5.476562 2.957031 -5.179688 2.71875 -4.796875 C 2.289062 -4.097656 1.953125 -3.476562 1.703125 -2.9375 C 1.460938 -2.40625 1.34375 -1.898438 1.34375 -1.421875 C 1.34375 -1.015625 1.414062 -0.738281 1.5625 -0.59375 C 1.707031 -0.445312 1.9375 -0.375 2.25 -0.375 C 3.289062 -0.375 4.328125 -1.382812 5.359375 -3.40625 L 5.65625 -3.09375 C 5.195312 -1.925781 4.609375 -1.019531 3.890625 -0.375 C 3.171875 0.269531 2.40625 0.59375 1.59375 0.59375 Z M 1.59375 0.59375 "/></g></g></g><g fill="#333f48" fill-opacity="1"><g transform="translate(155.488746, 29.018549)"><g><path d="M 3.671875 0.515625 C 3.179688 0.515625 2.785156 0.382812 2.484375 0.125 C 2.179688 -0.132812 2.03125 -0.476562 2.03125 -0.90625 C 2.03125 -1.164062 2.078125 -1.441406 2.171875 -1.734375 C 2.273438 -2.035156 2.425781 -2.394531 2.625 -2.8125 C 2.789062 -3.1875 2.921875 -3.5 3.015625 -3.75 C 3.109375 -4.007812 3.15625 -4.238281 3.15625 -4.4375 C 3.15625 -4.945312 2.820312 -5.375 2.15625 -5.71875 C 1.894531 -5.050781 1.585938 -4.378906 1.234375 -3.703125 C 0.890625 -3.035156 0.578125 -2.46875 0.296875 -2 L 0 -2.578125 C 0.601562 -3.660156 1.140625 -4.859375 1.609375 -6.171875 C 1.472656 -6.304688 1.40625 -6.484375 1.40625 -6.703125 C 1.40625 -7.046875 1.507812 -7.367188 1.71875 -7.671875 C 1.9375 -7.984375 2.144531 -8.140625 2.34375 -8.140625 C 2.476562 -8.140625 2.585938 -8.054688 2.671875 -7.890625 C 2.753906 -7.734375 2.796875 -7.601562 2.796875 -7.5 C 2.796875 -7.445312 2.765625 -7.332031 2.703125 -7.15625 C 2.648438 -6.976562 2.609375 -6.847656 2.578125 -6.765625 C 2.585938 -6.671875 2.640625 -6.582031 2.734375 -6.5 C 2.828125 -6.414062 3 -6.289062 3.25 -6.125 C 3.71875 -5.820312 4.078125 -5.53125 4.328125 -5.25 C 4.585938 -4.96875 4.71875 -4.585938 4.71875 -4.109375 C 4.71875 -3.816406 4.664062 -3.523438 4.5625 -3.234375 C 4.46875 -2.941406 4.320312 -2.59375 4.125 -2.1875 C 3.832031 -1.601562 3.6875 -1.1875 3.6875 -0.9375 C 3.6875 -0.625 3.851562 -0.46875 4.1875 -0.46875 C 4.582031 -0.46875 5.015625 -0.625 5.484375 -0.9375 C 5.953125 -1.257812 6.378906 -1.648438 6.765625 -2.109375 C 7.160156 -2.566406 7.453125 -2.992188 7.640625 -3.390625 L 8.109375 -3.03125 C 7.847656 -2.4375 7.476562 -1.867188 7 -1.328125 C 6.53125 -0.785156 6 -0.34375 5.40625 0 C 4.820312 0.34375 4.242188 0.515625 3.671875 0.515625 Z M 3.671875 0.515625 "/></g></g></g><g fill="#333f48" fill-opacity="1"><g transform="translate(162.688455, 29.018549)"><g><path d="M 1.109375 0.9375 C 0.648438 0.9375 0.265625 0.78125 -0.046875 0.46875 C -0.359375 0.164062 -0.515625 -0.257812 -0.515625 -0.8125 C -0.515625 -1.582031 -0.234375 -2.441406 0.328125 -3.390625 C 0.890625 -4.347656 1.609375 -5.15625 2.484375 -5.8125 C 3.359375 -6.476562 4.226562 -6.8125 5.09375 -6.8125 C 5.675781 -6.8125 6.160156 -6.660156 6.546875 -6.359375 C 6.941406 -6.054688 7.140625 -5.675781 7.140625 -5.21875 C 7.140625 -4.613281 6.765625 -4.296875 6.015625 -4.265625 C 6.492188 -4.117188 6.734375 -3.921875 6.734375 -3.671875 C 6.734375 -3.578125 6.6875 -3.4375 6.59375 -3.25 C 6.5 -3.070312 6.390625 -2.878906 6.265625 -2.671875 C 6.054688 -2.328125 5.890625 -2.023438 5.765625 -1.765625 C 5.648438 -1.515625 5.59375 -1.273438 5.59375 -1.046875 C 5.59375 -0.847656 5.640625 -0.679688 5.734375 -0.546875 C 5.835938 -0.410156 5.988281 -0.34375 6.1875 -0.34375 C 6.5625 -0.34375 7.035156 -0.597656 7.609375 -1.109375 C 8.179688 -1.628906 8.738281 -2.40625 9.28125 -3.4375 L 9.65625 -3.0625 C 9.175781 -1.957031 8.570312 -1.070312 7.84375 -0.40625 C 7.113281 0.257812 6.378906 0.59375 5.640625 0.59375 C 5.109375 0.59375 4.695312 0.414062 4.40625 0.0625 C 4.125 -0.28125 3.984375 -0.675781 3.984375 -1.125 C 3.390625 -0.414062 2.878906 0.101562 2.453125 0.4375 C 2.035156 0.769531 1.585938 0.9375 1.109375 0.9375 Z M 1.53125 -0.078125 C 1.988281 -0.078125 2.523438 -0.410156 3.140625 -1.078125 C 3.753906 -1.742188 4.453125 -2.613281 5.234375 -3.6875 L 5.640625 -4.234375 C 5.671875 -4.296875 5.722656 -4.328125 5.796875 -4.328125 L 5.875 -4.3125 C 5.9375 -4.519531 5.96875 -4.765625 5.96875 -5.046875 C 5.96875 -5.734375 5.691406 -6.078125 5.140625 -6.078125 C 4.554688 -6.078125 3.945312 -5.765625 3.3125 -5.140625 C 2.675781 -4.515625 2.144531 -3.769531 1.71875 -2.90625 C 1.289062 -2.050781 1.078125 -1.320312 1.078125 -0.71875 C 1.078125 -0.488281 1.113281 -0.320312 1.1875 -0.21875 C 1.257812 -0.125 1.375 -0.078125 1.53125 -0.078125 Z M 1.53125 -0.078125 "/></g></g></g><g clip-path="url(#d145ed8eef)"><g fill="#333f48" fill-opacity="1"><g transform="translate(171.494712, 29.018549)"><g><path d="M 1.109375 0.9375 C 0.648438 0.9375 0.265625 0.78125 -0.046875 0.46875 C -0.359375 0.164062 -0.515625 -0.257812 -0.515625 -0.8125 C -0.515625 -1.582031 -0.234375 -2.441406 0.328125 -3.390625 C 0.890625 -4.347656 1.609375 -5.15625 2.484375 -5.8125 C 3.359375 -6.476562 4.226562 -6.8125 5.09375 -6.8125 C 5.675781 -6.8125 6.160156 -6.660156 6.546875 -6.359375 C 6.941406 -6.054688 7.140625 -5.675781 7.140625 -5.21875 C 7.140625 -4.613281 6.765625 -4.296875 6.015625 -4.265625 C 6.492188 -4.117188 6.734375 -3.921875 6.734375 -3.671875 C 6.734375 -3.578125 6.6875 -3.4375 6.59375 -3.25 C 6.5 -3.070312 6.390625 -2.878906 6.265625 -2.671875 C 6.054688 -2.328125 5.890625 -2.023438 5.765625 -1.765625 C 5.648438 -1.515625 5.59375 -1.273438 5.59375 -1.046875 C 5.59375 -0.847656 5.640625 -0.679688 5.734375 -0.546875 C 5.835938 -0.410156 5.988281 -0.34375 6.1875 -0.34375 C 6.5625 -0.34375 7.035156 -0.597656 7.609375 -1.109375 C 8.179688 -1.628906 8.738281 -2.40625 9.28125 -3.4375 L 9.65625 -3.0625 C 9.175781 -1.957031 8.570312 -1.070312 7.84375 -0.40625 C 7.113281 0.257812 6.378906 0.59375 5.640625 0.59375 C 5.109375 0.59375 4.695312 0.414062 4.40625 0.0625 C 4.125 -0.28125 3.984375 -0.675781 3.984375 -1.125 C 3.390625 -0.414062 2.878906 0.101562 2.453125 0.4375 C 2.035156 0.769531 1.585938 0.9375 1.109375 0.9375 Z M 1.53125 -0.078125 C 1.988281 -0.078125 2.523438 -0.410156 3.140625 -1.078125 C 3.753906 -1.742188 4.453125 -2.613281 5.234375 -3.6875 L 5.640625 -4.234375 C 5.671875 -4.296875 5.722656 -4.328125 5.796875 -4.328125 L 5.875 -4.3125 C 5.9375 -4.519531 5.96875 -4.765625 5.96875 -5.046875 C 5.96875 -5.734375 5.691406 -6.078125 5.140625 -6.078125 C 4.554688 -6.078125 3.945312 -5.765625 3.3125 -5.140625 C 2.675781 -4.515625 2.144531 -3.769531 1.71875 -2.90625 C 1.289062 -2.050781 1.078125 -1.320312 1.078125 -0.71875 C 1.078125 -0.488281 1.113281 -0.320312 1.1875 -0.21875 C 1.257812 -0.125 1.375 -0.078125 1.53125 -0.078125 Z M 1.53125 -0.078125 "/></g></g></g></g></svg>